<mxfile host="app.diagrams.net" modified="2021-04-24T11:31:46.634Z" agent="5.0 (Macintosh; Intel Mac OS X 10_15_7) AppleWebKit/537.36 (KHTML, like Gecko) Chrome/90.0.4430.85 Safari/537.36" etag="HwSTLm_RldoCb4t6wmbb" version="14.6.6" type="github">
  <diagram id="eAi8zJwuuo-bABCW_Yco" name="第 1 页">
    <mxGraphModel dx="1717" dy="589" grid="1" gridSize="10" guides="1" tooltips="1" connect="1" arrows="1" fold="1" page="1" pageScale="1" pageWidth="827" pageHeight="1169" math="0" shadow="0">
      <root>
        <mxCell id="0" />
        <mxCell id="1" parent="0" />
        <mxCell id="UOCio54_dr0btCB2Ho9Q-3" value="" style="edgeStyle=orthogonalEdgeStyle;rounded=0;orthogonalLoop=1;jettySize=auto;html=1;" edge="1" parent="1" source="UOCio54_dr0btCB2Ho9Q-1" target="UOCio54_dr0btCB2Ho9Q-2">
          <mxGeometry relative="1" as="geometry" />
        </mxCell>
        <mxCell id="UOCio54_dr0btCB2Ho9Q-1" value="开始" style="ellipse;whiteSpace=wrap;html=1;" vertex="1" parent="1">
          <mxGeometry x="230" y="120" width="90" height="80" as="geometry" />
        </mxCell>
        <mxCell id="UOCio54_dr0btCB2Ho9Q-7" style="edgeStyle=orthogonalEdgeStyle;rounded=0;orthogonalLoop=1;jettySize=auto;html=1;exitX=0.5;exitY=1;exitDx=0;exitDy=0;entryX=0.5;entryY=0;entryDx=0;entryDy=0;" edge="1" parent="1" source="UOCio54_dr0btCB2Ho9Q-2" target="UOCio54_dr0btCB2Ho9Q-4">
          <mxGeometry relative="1" as="geometry" />
        </mxCell>
        <mxCell id="UOCio54_dr0btCB2Ho9Q-8" style="edgeStyle=orthogonalEdgeStyle;rounded=0;orthogonalLoop=1;jettySize=auto;html=1;exitX=0.5;exitY=1;exitDx=0;exitDy=0;entryX=0.5;entryY=0;entryDx=0;entryDy=0;" edge="1" parent="1" source="UOCio54_dr0btCB2Ho9Q-2" target="UOCio54_dr0btCB2Ho9Q-6">
          <mxGeometry relative="1" as="geometry" />
        </mxCell>
        <mxCell id="UOCio54_dr0btCB2Ho9Q-2" value="产品" style="whiteSpace=wrap;html=1;" vertex="1" parent="1">
          <mxGeometry x="215" y="290" width="120" height="60" as="geometry" />
        </mxCell>
        <mxCell id="UOCio54_dr0btCB2Ho9Q-14" value="" style="edgeStyle=orthogonalEdgeStyle;rounded=0;orthogonalLoop=1;jettySize=auto;html=1;dashed=1;" edge="1" parent="1" source="UOCio54_dr0btCB2Ho9Q-4" target="UOCio54_dr0btCB2Ho9Q-13">
          <mxGeometry relative="1" as="geometry" />
        </mxCell>
        <mxCell id="UOCio54_dr0btCB2Ho9Q-4" value="后端" style="whiteSpace=wrap;html=1;" vertex="1" parent="1">
          <mxGeometry x="140" y="460" width="120" height="60" as="geometry" />
        </mxCell>
        <mxCell id="UOCio54_dr0btCB2Ho9Q-6" value="前端" style="whiteSpace=wrap;html=1;" vertex="1" parent="1">
          <mxGeometry x="294" y="460" width="120" height="60" as="geometry" />
        </mxCell>
        <mxCell id="UOCio54_dr0btCB2Ho9Q-9" value="测试" style="whiteSpace=wrap;html=1;" vertex="1" parent="1">
          <mxGeometry x="460" y="460" width="120" height="60" as="geometry" />
        </mxCell>
        <mxCell id="UOCio54_dr0btCB2Ho9Q-10" value="" style="endArrow=none;html=1;dashed=1;" edge="1" parent="1">
          <mxGeometry width="50" height="50" relative="1" as="geometry">
            <mxPoint x="109" y="380" as="sourcePoint" />
            <mxPoint x="719" y="380" as="targetPoint" />
          </mxGeometry>
        </mxCell>
        <mxCell id="UOCio54_dr0btCB2Ho9Q-11" value="产品先把需求理清楚" style="edgeLabel;html=1;align=center;verticalAlign=middle;resizable=0;points=[];" vertex="1" connectable="0" parent="UOCio54_dr0btCB2Ho9Q-10">
          <mxGeometry x="0.7738" relative="1" as="geometry">
            <mxPoint as="offset" />
          </mxGeometry>
        </mxCell>
        <mxCell id="UOCio54_dr0btCB2Ho9Q-12" value="具有普遍性的需求" style="text;html=1;strokeColor=none;fillColor=none;align=center;verticalAlign=middle;whiteSpace=wrap;rounded=0;" vertex="1" parent="1">
          <mxGeometry x="740" y="350" width="100" height="30" as="geometry" />
        </mxCell>
        <mxCell id="UOCio54_dr0btCB2Ho9Q-13" value="" style="whiteSpace=wrap;html=1;" vertex="1" parent="1">
          <mxGeometry x="140" y="560" width="120" height="60" as="geometry" />
        </mxCell>
        <mxCell id="UOCio54_dr0btCB2Ho9Q-15" value="流程图" style="rounded=1;whiteSpace=wrap;html=1;fillColor=#d5e8d4;strokeColor=none;" vertex="1" parent="1">
          <mxGeometry x="-10" y="325" width="80" height="40" as="geometry" />
        </mxCell>
        <mxCell id="UOCio54_dr0btCB2Ho9Q-16" value="实体关系图" style="rounded=1;whiteSpace=wrap;html=1;fillColor=#d5e8d4;strokeColor=none;" vertex="1" parent="1">
          <mxGeometry x="-10" y="368" width="80" height="40" as="geometry" />
        </mxCell>
      </root>
    </mxGraphModel>
  </diagram>
</mxfile>
